<?xml version="1.0" encoding="UTF-8"?>
<svg id="Layer_2" xmlns="http://www.w3.org/2000/svg" viewBox="0 0 103 103">
  <defs>
    <style>
      .cls-1 {
        fill: #e1d8eb;
        stroke: #6e60aa;
        stroke-miterlimit: 10;
        stroke-width: 3px;
      }

      .cls-2 {
        fill: #6e60aa;
      }
    </style>
  </defs>
  <g id="Layer_1-2" data-name="Layer_1">
    <circle class="cls-1" cx="51.5" cy="51.5" r="50"/>
    <path class="cls-2" d="M47.41,35.41c2.51,0,12.77-.41,15.53-.41,2.51,0,3.2.7,3.2,2.14s-.37,2.79-.37,4.07.37,2.51.37,3.7c0,1.77-1.52,2.92-3.2,2.92-2.1,0-3.12-1.31-3.12-3.29,0-1.03.37-1.97.37-2.92,0-1.15-.49-1.27-2.96-1.27h-3.66c-2.26,0-2.79.21-2.79,1.97v2.38c0,.99.12,1.4,1.23,1.4,1.44,0,1.81-.58,1.81-1.4,0-.33-.08-.82-.08-1.15,0-1.19.86-1.77,2.01-1.77,1.48,0,2.3.62,2.3,2.22,0,1.27-.33,2.51-.33,3.78,0,1.77.33,3.57.33,5.18s-.66,2.51-2.26,2.51c-1.27,0-2.09-.82-2.09-2.09,0-.33.08-.9.08-1.27,0-.82-.45-.99-1.77-.99-1.11,0-1.23.25-1.23,1.56v2.75c0,2.59.86,2.71,3.86,2.71h2.09c2.79,0,3.94-.66,3.94-2.1,0-.9-.29-1.85-.29-2.75,0-2.14,1.23-3.41,3.37-3.41,1.93,0,3.04,1.44,3.04,3.53,0,1.52-.33,3.25-.33,4.77,0,1.15.33,2.22.33,3.25,0,1.31-.82,2.18-2.59,2.18-2.42,0-10.93-.41-15.49-.41-2.14,0-4.68.41-6.45.41-2.67,0-4.11-1.03-4.11-3.12,0-1.64.99-2.75,2.14-2.75.62,0,1.19.29,1.81.29.82,0,1.07-.45,1.07-2.92v-11.46c0-1.77-.12-3.04-.99-3.04-.66,0-1.31.29-2.01.29-1.23,0-2.01-1.4-2.01-2.75,0-1.85,1.11-3.12,2.96-3.12,1.07,0,3.98.41,6.29.41Z"/>
  </g>
</svg>