<svg width="33" height="33" viewBox="0 0 33 33" fill="none" xmlns="http://www.w3.org/2000/svg">
<path d="M28.9382 17.5943L19.6569 26.8756C19.3663 27.1662 18.9722 27.3294 18.5612 27.3294C18.1502 27.3294 17.7561 27.1662 17.4655 26.8756C17.1749 26.585 17.0117 26.1908 17.0117 25.7799C17.0117 25.3689 17.1749 24.9747 17.4655 24.6841L24.1055 18.0468H5.15625C4.74599 18.0468 4.35254 17.8838 4.06244 17.5937C3.77235 17.3036 3.60938 16.9101 3.60938 16.4999C3.60938 16.0896 3.77235 15.6962 4.06244 15.4061C4.35254 15.116 4.74599 14.953 5.15625 14.953H24.1055L17.4681 8.31177C17.1775 8.02117 17.0142 7.62703 17.0142 7.21606C17.0142 6.80509 17.1775 6.41096 17.4681 6.12036C17.7587 5.82976 18.1528 5.6665 18.5638 5.6665C18.9748 5.6665 19.3689 5.82976 19.6595 6.12036L28.9407 15.4016C29.085 15.5455 29.1994 15.7165 29.2773 15.9047C29.3553 16.093 29.3953 16.2947 29.3951 16.4985C29.3948 16.7022 29.3543 16.9039 29.2759 17.092C29.1975 17.28 29.0827 17.4507 28.9382 17.5943Z" fill="#755CCE"/>
</svg>
