<svg width="24" height="24" viewBox="0 0 24 24" fill="none" xmlns="http://www.w3.org/2000/svg">
<path d="M2.5 4C2.5 3.73478 2.60536 3.48043 2.79289 3.29289C2.98043 3.10536 3.23478 3 3.5 3H17.5C17.7652 3 18.0196 3.10536 18.2071 3.29289C18.3946 3.48043 18.5 3.73478 18.5 4C18.5 4.26522 18.3946 4.51957 18.2071 4.70711C18.0196 4.89464 17.7652 5 17.5 5H3.5C3.23478 5 2.98043 4.89464 2.79289 4.70711C2.60536 4.51957 2.5 4.26522 2.5 4ZM2.5 10C2.5 9.73478 2.60536 9.48043 2.79289 9.29289C2.98043 9.10536 3.23478 9 3.5 9H17.5C17.7652 9 18.0196 9.10536 18.2071 9.29289C18.3946 9.48043 18.5 9.73478 18.5 10C18.5 10.2652 18.3946 10.5196 18.2071 10.7071C18.0196 10.8946 17.7652 11 17.5 11H3.5C3.23478 11 2.98043 10.8946 2.79289 10.7071C2.60536 10.5196 2.5 10.2652 2.5 10ZM3.5 15C3.23478 15 2.98043 15.1054 2.79289 15.2929C2.60536 15.4804 2.5 15.7348 2.5 16C2.5 16.2652 2.60536 16.5196 2.79289 16.7071C2.98043 16.8946 3.23478 17 3.5 17H17.5C17.7652 17 18.0196 16.8946 18.2071 16.7071C18.3946 16.5196 18.5 16.2652 18.5 16C18.5 15.7348 18.3946 15.4804 18.2071 15.2929C18.0196 15.1054 17.7652 15 17.5 15H3.5Z" fill="#755CCE"/>
</svg>
