<svg width="60" height="57" viewBox="0 0 60 57" fill="none" xmlns="http://www.w3.org/2000/svg">
<path d="M28.5 1.5C13.5883 1.5 1.5 13.5883 1.5 28.5C1.5 43.4117 13.5883 55.5 28.5 55.5H30.9874C45.8991 55.5 57.9874 43.4117 57.9874 28.5C57.9874 13.5883 45.8991 1.5 30.9874 1.5H28.5Z" fill="#F4F3F0"/>
<path d="M28.5 1.5C13.5883 1.5 1.5 13.5883 1.5 28.5C1.5 43.4117 13.5883 55.5 28.5 55.5H30.9874C45.8991 55.5 57.9874 43.4117 57.9874 28.5C57.9874 13.5883 45.8991 1.5 30.9874 1.5H28.5Z" stroke="#755CCE" stroke-width="3"/>
<path d="M19 28.5C19 24.022 19 21.782 20.5731 20.391C22.1462 19 24.6783 19 29.7437 19C34.8079 19 37.3412 19 38.9143 20.391C40.4874 21.782 40.4874 24.021 40.4874 28.5C40.4874 32.978 40.4874 35.218 38.9143 36.609C37.3412 38 34.8091 38 29.7437 38C24.6795 38 22.1462 38 20.5731 36.609C19 35.218 19 32.979 19 28.5Z" stroke="#755CCE" stroke-width="1.5" stroke-linecap="round" stroke-linejoin="round"/>
<path d="M35.973 23H35.9617M34.833 28.5C34.833 29.6935 34.2969 30.8381 33.3425 31.682C32.3881 32.5259 31.0936 33 29.7439 33C28.3942 33 27.0998 32.5259 26.1454 31.682C25.191 30.8381 24.6548 29.6935 24.6548 28.5C24.6548 27.3065 25.191 26.1619 26.1454 25.318C27.0998 24.4741 28.3942 24 29.7439 24C31.0936 24 32.3881 24.4741 33.3425 25.318C34.2969 26.1619 34.833 27.3065 34.833 28.5Z" stroke="#755CCE" stroke-width="1.5" stroke-linecap="round" stroke-linejoin="round"/>
</svg>
