<svg width="60" height="57" viewBox="0 0 60 57" fill="none" xmlns="http://www.w3.org/2000/svg">
<path d="M28.5 1.5C13.5883 1.5 1.5 13.5883 1.5 28.5C1.5 43.4117 13.5883 55.5 28.5 55.5H30.9874C45.8991 55.5 57.9874 43.4117 57.9874 28.5C57.9874 13.5883 45.8991 1.5 30.9874 1.5H28.5Z" fill="#F4F3F0"/>
<path d="M28.5 1.5C13.5883 1.5 1.5 13.5883 1.5 28.5C1.5 43.4117 13.5883 55.5 28.5 55.5H30.9874C45.8991 55.5 57.9874 43.4117 57.9874 28.5C57.9874 13.5883 45.8991 1.5 30.9874 1.5H28.5Z" stroke="#755CCE" stroke-width="3"/>
<path d="M21.704 19.6972C21.1491 19.6963 20.6252 19.9305 20.2368 20.3345C19.8496 20.7373 19.6239 21.2791 19.593 21.8461L19.5764 22.1489L19.8374 22.3035C21.0131 23.0001 22.2084 23.6965 23.384 24.3815C23.4426 24.4156 23.501 24.4497 23.5595 24.4837C24.0438 24.7689 24.5295 25.0555 25.0162 25.3427C26.048 25.9515 27.0842 26.5629 28.1198 27.1686C28.421 27.4159 28.768 27.5949 29.1405 27.6912C29.5278 27.7914 29.9307 27.799 30.3212 27.7134L30.3663 27.7035L30.4088 27.6855C30.8357 27.5051 31.2448 27.2792 31.6305 27.0116C32.6835 26.3911 33.7374 25.772 34.791 25.153C36.4128 24.2002 38.0338 23.2478 39.6498 22.2917L39.9128 22.1361L37.7833 19.6972M21.704 19.6972C21.7042 19.6972 21.7043 19.6972 21.7045 19.6972L21.7035 20.1972V19.6972H21.704ZM21.704 19.6972H37.7833M37.7833 19.6972C37.7831 19.6972 37.7829 19.6972 37.7827 19.6972L37.7839 20.1968V19.6972H37.7833ZM20.3328 22.8L19.5814 22.3629V23.2322V35.0069C19.5814 35.6003 19.7939 36.1784 20.1855 36.6119C20.5786 37.0472 21.1233 37.3028 21.7035 37.3028H37.7839C38.3641 37.3028 38.9088 37.0472 39.302 36.6119C39.6936 36.1784 39.906 35.6003 39.906 35.0069V23.2322V22.3601L39.1534 22.8007C38.8811 22.9601 38.6092 23.119 38.3373 23.2778C37.4892 23.7734 36.6421 24.2683 35.7894 24.7766C35.0054 25.2316 34.2243 25.6894 33.4442 26.1466L33.4434 26.1471C32.6619 26.6051 31.8816 27.0625 31.0986 27.5168L31.0798 27.5277L31.062 27.5403C30.5351 27.9108 29.9132 28.0539 29.3083 27.9537C28.8529 27.8021 28.4157 27.5854 28.0079 27.3083L27.9942 27.2989L27.9798 27.2905C27.0197 26.7275 26.0599 26.162 25.0999 25.5966C23.512 24.6611 21.9237 23.7254 20.3328 22.8ZM21.7035 19.5H37.7839C38.3509 19.5 38.9064 19.7489 39.3245 20.2118C39.7441 20.6763 39.9874 21.3164 39.9874 21.9931V35.0069C39.9874 35.6836 39.7441 36.3237 39.3245 36.7882C38.9064 37.2511 38.3509 37.5 37.7839 37.5H21.7035C21.1365 37.5 20.581 37.2511 20.1629 36.7882C19.7433 36.3237 19.5 35.6836 19.5 35.0069V21.9931C19.5 21.3164 19.7433 20.6763 20.1629 20.2118C20.581 19.7489 21.1365 19.5 21.7035 19.5Z" fill="black" stroke="#755CCE"/>
</svg>
