<svg width="13" height="15" viewBox="0 0 13 15" fill="none" xmlns="http://www.w3.org/2000/svg">
<path d="M12.145 0.664165C11.7322 0.297357 11.1001 0.334706 10.7333 0.747586L0.770826 11.9614C0.404019 12.3743 0.441367 13.0063 0.854248 13.3731C1.26713 13.7399 1.89919 13.7026 2.266 13.2897L12.2285 2.07592C12.5953 1.66304 12.5579 1.03097 12.145 0.664165Z" fill="#755CCE"/>
<path d="M0.747531 0.682719C1.16041 0.315911 1.79247 0.353261 2.15928 0.766141L12.1218 11.9799C12.4886 12.3928 12.4512 13.0249 12.0383 13.3917C11.6254 13.7585 10.9934 13.7211 10.6266 13.3083L0.664109 2.09447C0.297301 1.68159 0.33465 1.04953 0.747531 0.682719Z" fill="#755CCE"/>
</svg>
