<svg width="60" height="57" viewBox="0 0 60 57" fill="none" xmlns="http://www.w3.org/2000/svg">
<path d="M28.9873 1.5C14.0756 1.5 1.9873 13.5883 1.9873 28.5C1.9873 43.4117 14.0756 55.5 28.9873 55.5H31.4747C46.3864 55.5 58.4747 43.4117 58.4747 28.5C58.4747 13.5883 46.3864 1.5 31.4747 1.5H28.9873Z" fill="#F4F3F0"/>
<path d="M28.9873 1.5C14.0756 1.5 1.9873 13.5883 1.9873 28.5C1.9873 43.4117 14.0756 55.5 28.9873 55.5H31.4747C46.3864 55.5 58.4747 43.4117 58.4747 28.5C58.4747 13.5883 46.3864 1.5 31.4747 1.5H28.9873Z" stroke="#755CCE" stroke-width="3"/>
<path d="M26.4097 37.1545C26.1072 37.4224 25.7479 37.635 25.3525 37.7801C24.957 37.9252 24.5331 37.9999 24.105 38H19.4873V33.9424C19.4873 33.1782 19.831 32.4446 20.4421 31.9042M26.4097 37.1545L20.4421 31.9042M26.4097 37.1545L38.3138 26.6221M20.4421 31.9042L32.3582 21.3538L34.0601 19.8465C34.363 19.5782 34.7227 19.3654 35.1186 19.2202C35.5145 19.0749 35.9389 19.0001 36.3676 19C36.7962 18.9999 37.2206 19.0745 37.6166 19.2196C38.0127 19.3647 38.3724 19.5773 38.6755 19.8455L40.0194 21.0351C40.6311 21.5761 40.9747 22.3098 40.9747 23.0749C40.9747 23.84 40.6311 24.5738 40.0194 25.1148L38.3138 26.6221M38.3138 26.6221L32.357 21.3538" stroke="#755CCE" stroke-width="1.5" stroke-linecap="round" stroke-linejoin="round"/>
</svg>
